<?xml version="1.0" encoding="UTF-8"?>
<svg id="_Слой_1" data-name="Слой 1" xmlns="http://www.w3.org/2000/svg" xmlns:xlink="http://www.w3.org/1999/xlink" viewBox="0 0 398.44 151.58">
  <defs>
    <style>
      .cls-1 {
        mask: url(#mask-1);
      }

      .cls-2 {
        fill: #fff;
      }

      .cls-3 {
        mask: url(#mask);
      }

      .cls-4 {
        fill: none;
      }

      .cls-5 {
        mask: url(#mask-2);
      }

      .cls-6 {
        fill: url(#_Безымянный_градиент_2);
      }

      .cls-7 {
        fill: url(#_Безымянный_градиент);
      }

      .cls-8 {
        fill: #c19661;
      }

      .cls-9 {
        fill: url(#_Безымянный_градиент_3);
      }

      .cls-10 {
        clip-path: url(#clippath);
      }
    </style>
    <clipPath id="clippath">
      <rect class="cls-4" x="-221.71" y="-222.05" width="841.89" height="595.28"/>
    </clipPath>
    <linearGradient id="_Безымянный_градиент" data-name="Безымянный градиент" x1="-209.91" y1="346.94" x2="-208.23" y2="373.55" gradientTransform="translate(278.81 -273.46)" gradientUnits="userSpaceOnUse">
      <stop offset="0" stop-color="#fff"/>
      <stop offset="1" stop-color="#000"/>
    </linearGradient>
    <mask id="mask" x="57.09" y="63.45" width="24.63" height="36.32" maskUnits="userSpaceOnUse">
      <rect class="cls-7" x="57.09" y="63.45" width="24.63" height="36.32"/>
    </mask>
    <linearGradient id="_Безымянный_градиент_2" data-name="Безымянный градиент 2" x1="-220.19" y1="347.33" x2="-214.25" y2="372.66" gradientTransform="translate(306.42 -273.46)" gradientUnits="userSpaceOnUse">
      <stop offset="0" stop-color="#fff"/>
      <stop offset="1" stop-color="#000"/>
    </linearGradient>
    <mask id="mask-1" x="84.71" y="63.45" width="6.66" height="36.32" maskUnits="userSpaceOnUse">
      <rect class="cls-6" x="84.71" y="63.45" width="6.66" height="36.32"/>
    </mask>
    <linearGradient id="_Безымянный_градиент_3" data-name="Безымянный градиент 3" x1="-216.57" y1="347.34" x2="-222.5" y2="372.67" gradientTransform="translate(269.16 -273.46)" gradientUnits="userSpaceOnUse">
      <stop offset="0" stop-color="#fff"/>
      <stop offset="1" stop-color="#000"/>
    </linearGradient>
    <mask id="mask-2" x="47.45" y="63.45" width="6.66" height="36.32" maskUnits="userSpaceOnUse">
      <rect class="cls-9" x="47.45" y="63.45" width="6.66" height="36.32"/>
    </mask>
  </defs>
  <g class="cls-10">
    <path class="cls-2" d="M330.4,66.41v25.01h6.39v-13.47c1.31-.88,2.5-1.23,4.08-1.23,1.23,0,2.12.35,2.73.96.69.73,1,1.73,1,3.15v10.58h6.39v-10.96c0-3.12-1.04-5.23-2.65-6.62-1.58-1.39-3.54-2-6.39-2-1.85,0-3.62.46-5.16,1.42v-6.85h-6.39ZM325.88,73.33c-2.62-1.08-5.04-1.5-7.93-1.5-3.54,0-6.27.92-8.08,2.58-2.04,1.88-3.15,4.39-3.15,7.39s1.15,5.54,3.19,7.42c1.77,1.62,4.5,2.54,8.04,2.54,2.73,0,5.39-.46,7.93-1.54l-1.5-4.35c-2.35.69-4,.92-5.85.92s-3.35-.62-4.23-1.65c-.81-.92-1.19-2.16-1.19-3.5,0-1.65.5-2.96,1.46-3.85.89-.81,2.19-1.23,3.96-1.23s3.19.15,5.85.85l1.5-4.08ZM302.39,91.42v-19.24h-6.39v13.54c-1.31.89-2.5,1.23-4.08,1.23-1.23,0-2.08-.35-2.69-.96-.69-.73-1-1.81-1-3.23v-10.58h-6.39v10.96c0,3.12,1.04,5.23,2.66,6.62,1.58,1.39,3.81,2,6.65,2,2.35,0,4.46-.85,5.77-1.81l.62,1.46h4.85ZM266.83,76.6c1.42,0,2.5.5,3.23,1.35.81.92,1.19,2.31,1.19,3.85s-.39,2.92-1.19,3.85c-.73.85-1.81,1.35-3.23,1.35s-2.5-.5-3.23-1.35c-.81-.92-1.19-2.31-1.19-3.85s.39-2.92,1.19-3.85c.73-.85,1.81-1.35,3.23-1.35ZM266.83,71.83c-3.15,0-5.89,1-7.81,2.73-1.92,1.73-3.04,4.19-3.04,7.23s1.12,5.5,3.04,7.23c1.92,1.73,4.66,2.73,7.81,2.73s5.89-1,7.81-2.73c1.92-1.73,3.04-4.19,3.04-7.23s-1.12-5.5-3.04-7.23c-1.92-1.73-4.66-2.73-7.81-2.73ZM236.11,76.95h3.04v7.58c0,2.16.54,3.89,1.62,5.08,1.27,1.42,3.27,2.15,5.89,2.15,3.35,0,5.69-.69,7.89-2.23l-1.42-3.77c-1.89.69-3.19.96-4.96.96-.88,0-1.58-.23-2.04-.73-.38-.42-.58-1-.58-1.77v-7.35l7.31-.35v-4.35h-7.31v-4.54h-5.5l-.73,4.81-3.19.31v4.19ZM223.47,73.64c-3.08-1.23-5.85-1.81-8.81-1.81-3.19,0-5.62.46-7.23,1.42-1.89,1.12-2.92,2.89-2.92,4.81,0,1.58.54,2.92,1.62,3.92,1.08,1,2.73,1.69,5,1.85l5.16.39c.62.04,1.23.15,1.58.42.19.15.35.39.35.73,0,.5-.31.88-.88,1.12-.85.38-2.23.5-4.12.5-2.42,0-4.96-.54-7.2-1.46l-1.42,4.35c2.96,1.31,5.89,1.89,9,1.89,3.46,0,6.43-.54,8.39-1.92,1.54-1.08,2.42-2.69,2.42-4.96,0-1.89-.81-3.23-2.04-4.12-1.31-.96-3.15-1.39-5.08-1.54l-5.16-.38c-.42-.04-.81-.12-1.08-.35-.23-.19-.35-.42-.35-.73,0-.39.31-.65.77-.85.73-.27,1.89-.35,3.19-.35,2.27,0,4.85.42,7.31,1.15l1.5-4.08ZM189.13,83.14c1.58,0,2.58,0,4.58.15v3.15c-1.15.31-2.58.46-4.16.46-1.12,0-2.04-.15-2.62-.62-.38-.31-.62-.77-.62-1.38,0-.69.35-1.12.85-1.39.58-.31,1.31-.39,1.96-.39ZM200.06,78.8c0-2.23-.73-3.77-1.92-4.85-1.89-1.69-4.85-2.12-7.81-2.12-3.58,0-5.73.35-8.81,1.46l1.08,4.12c2.15-.54,4.27-.81,6.23-.81s3.39.12,4.27.69c.39.23.62.69.62,1.12v.54c-1.42-.27-2.73-.42-4.5-.42-2.31,0-4.58.42-6.27,1.35-1.85,1.04-3.08,2.65-3.08,5.12s.96,4.12,2.46,5.19c1.66,1.15,3.96,1.58,6.39,1.58s4.27-.54,6.46-1.65c.65.69,1.35,1.23,2.23,1.69l3.54-1.54c-.69-1.65-.88-2.58-.88-4.5v-6.96ZM169.18,85.68c-1.31.77-2.62,1.15-4.27,1.15-1.39,0-2.46-.42-3.27-1.19-.92-.89-1.42-2.27-1.42-3.92s.46-2.96,1.35-3.85c.81-.81,2-1.27,3.58-1.27s2.81.35,4.04,1.19v7.89ZM170.03,90.07l.58,1.35h4.92v-25.01h-6.35v6.46c-1.54-.73-3.04-1.04-4.89-1.04-3.39,0-6.08,1-7.93,2.89-1.62,1.65-2.54,4.04-2.54,7.08s1.04,5.58,2.81,7.27c1.81,1.73,4.27,2.69,7.5,2.69,2.39,0,4.12-.42,5.89-1.69ZM146.31,63.68c-2.38,0-3.81,1.5-3.81,3.23s1.42,3.19,3.81,3.19,3.85-1.5,3.85-3.19-1.39-3.23-3.85-3.23ZM141.08,76.26l2.08.38v14.77h6.35v-19.24h-8.42v4.08ZM104.51,72.18v19.24h6.35v-13.5c1.19-.92,2.23-1.27,3.62-1.27s2.31.38,2.88,1.04c.54.65.77,1.62.77,2.77v10.96h6.39v-10.58c0-1.19-.12-1.81-.35-2.85,1.15-1,2.08-1.35,3.54-1.35,1.08,0,1.89.27,2.42.73.77.69,1.04,1.77,1.04,3.08v10.96h6.35v-10.58c0-3.46-1-5.62-2.92-7.19-1.5-1.19-3.54-1.81-6.12-1.81-3,0-4.92.62-6.69,2.08-1-.77-1.89-1.31-2.89-1.62-1.04-.35-2.19-.46-3.65-.46-2.35,0-3.89.65-5.27,1.81l-.62-1.46h-4.85Z"/>
    <polygon class="cls-8" points="69.41 60.32 63.54 60.32 63.54 51.82 65.11 51.82 66.06 54.8 68.15 54.8 68.63 51.82 69.41 51.82 70.19 51.82 70.67 54.8 72.76 54.8 73.71 51.82 75.28 51.82 75.28 60.32 69.41 60.32"/>
    <g class="cls-3">
      <polygon class="cls-8" points="57.09 70.53 63.26 70.56 65.86 73.55 65.86 99.76 72.97 99.76 72.97 73.55 75.57 70.56 81.73 70.53 81.73 63.45 72.32 63.5 69.41 66.84 66.51 63.5 57.09 63.45 57.09 70.53"/>
    </g>
    <g class="cls-1">
      <polygon class="cls-8" points="84.71 63.45 91.37 67.8 91.37 99.76 84.71 99.76 84.71 63.45"/>
    </g>
    <g class="cls-5">
      <polygon class="cls-8" points="54.12 63.45 47.45 67.8 47.45 99.76 54.12 99.76 54.12 63.45"/>
    </g>
  </g>
</svg>